HIERARCHY
ROOT simHips
{
  OFFSET 0.726923 85.0176 -1.35651
  CHANNELS 6 Xposition Yposition Zposition Zrotation Xrotation Yrotation
  JOINT simSpine
  {
    OFFSET -0.000355721 21.3001 -0.016921
    CHANNELS 3 Zrotation Xrotation Yrotation
    JOINT simLeftArm
    {
      OFFSET 13.5181 21.3012 0
      CHANNELS 3 Zrotation Xrotation Yrotation
      JOINT simLeftForeArm
      {
        OFFSET 24.5783 0 0
        CHANNELS 3 Zrotation Xrotation Yrotation
        JOINT simLeftHand
        {
          OFFSET 24.5783 0 0
          CHANNELS 3 Zrotation Xrotation Yrotation
          End Site
          {
            OFFSET 7.32568 1.52588e-05 0.0169305
          }
        }
      }
    }
    JOINT simHead
    {
      OFFSET 0 27.4458 -0.00489235
      CHANNELS 3 Zrotation Xrotation Yrotation
      End Site
      {
        OFFSET 0 0 0
      }
    }
    JOINT simRightArm
    {
      OFFSET -13.5174 21.3012 0
      CHANNELS 3 Zrotation Xrotation Yrotation
      JOINT simRightForeArm
      {
        OFFSET -24.5783 0 0
        CHANNELS 3 Zrotation Xrotation Yrotation
        JOINT simRightHand
        {
          OFFSET -24.5783 0 0
          CHANNELS 3 Zrotation Xrotation Yrotation
          End Site
          {
            OFFSET -7.32568 1.52588e-05 0.0169305
          }
        }
      }
    }
  }
  JOINT simRightUpLeg
  {
    OFFSET -8.44614 -9.41038 0.835684
    CHANNELS 3 Zrotation Xrotation Yrotation
    JOINT simRightLeg
    {
      OFFSET 0 -40.9639 0
      CHANNELS 3 Zrotation Xrotation Yrotation
      JOINT simRightFoot
      {
        OFFSET 0 -40.9639 0
        CHANNELS 3 Zrotation Xrotation Yrotation
        End Site
        {
          OFFSET 0.50614 -9.67405 14.6709
        }
      }
    }
  }
  JOINT simLeftUpLeg
  {
    OFFSET 8.44614 -9.41038 0.835684
    CHANNELS 3 Zrotation Xrotation Yrotation
    JOINT simLeftLeg
    {
      OFFSET 0 -40.9639 0
      CHANNELS 3 Zrotation Xrotation Yrotation
      JOINT simLeftFoot
      {
        OFFSET 0 -40.9639 0
        CHANNELS 3 Zrotation Xrotation Yrotation
        End Site
        {
          OFFSET -0.50614 -9.67405 14.6709
        }
      }
    }
  }
}
MOTION
Frames:	9
Frame Time:	0.0333333
0.726923 85.0176 -1.35651 0.0522533 -5.45317 -46.3231 -1.957 9.24296 7.5527 -73.4735 -36.6335 -36.9518 0.0015265 4.29795e-06 -106.36 -15.762 4.01518 -6.87554 -3.25032 11.8038 36.2417 57.9448 29.0798 54.4533 0.000506489 -2.10076e-05 105.983 8.40761 -5.62047 18.5749 -28.2269 -17.8496 -21.6509 -17.13 62.1702 5.33873 23.7447 -29.0257 5.04272 18.9792 -28.3355 17.9029 9.64816 62.4757 -15.0856 -14.9305 -25.3761 -14.7185 
0.547493 83.784 -2.00049 -0.535703 -6.38004 -45.5994 -1.75796 10.2237 7.67406 -72.9116 -35.4703 -36.3447 0.00152647 4.19791e-06 -105.969 -14.3682 2.66393 -7.20308 -2.6197 11.0603 35.5881 58.1273 28.8406 54.4153 0.000506767 -2.19546e-05 106.724 8.49544 -4.55009 18.8554 -29.6826 -17.8709 -22.485 -17.7274 65.7009 5.96544 24.1877 -30.4376 6.47262 19.1577 -29.9515 16.6435 10.9739 66.1045 -16.7319 -14.5185 -24.9545 -13.9721 
0.327204 82.6949 -2.40727 -1.34857 -7.62438 -45.0165 -1.50116 11.0733 7.89551 -71.4901 -34.1653 -33.7816 0.00152648 4.24569e-06 -106.156 -12.7583 0.668159 -8.25119 -1.97323 11.5117 34.9268 58.4627 29.2789 53.4746 0.000507073 -2.29477e-05 107.504 8.34834 -3.95086 19.0541 -30.5413 -17.1982 -22.474 -19.2119 68.3546 7.68852 24.7526 -31.858 6.93907 19.1625 -30.7227 16.0922 12.6093 69.3643 -18.7803 -13.0067 -24.8893 -12.4465 
0.359497 81.838 -2.36819 -2.13829 -9.07082 -45.0885 -1.04158 12.0884 8.19894 -69.8183 -33.1173 -29.2923 0.00152654 4.43968e-06 -106.915 -11.3592 -1.84533 -10.0068 -2.13701 12.6202 34.9721 58.6764 30.3759 52.251 0.00050723 -2.34387e-05 107.892 7.32481 -3.48976 18.9567 -31.5243 -16.2829 -22.3982 -22.1822 69.789 10.6318 25.7667 -32.5312 8.07034 18.8063 -31.4879 15.4973 15.0469 72.8243 -21.7695 -11.9678 -22.8967 -10.896 
0.622421 81.4169 -1.79369 -2.92086 -10.6714 -45.4694 -0.486173 13.0734 8.6515 -66.9016 -31.76 -22.2158 0.00152664 4.76739e-06 -108.206 -9.27463 -5.50681 -11.6702 -2.52749 14.0534 35.0868 59.1032 31.6701 50.4668 0.000507226 -2.34281e-05 107.883 6.97026 -3.84216 19.3979 -32.5328 -14.7553 -21.9968 -24.7146 69.6914 12.9605 26.9868 -32.2713 9.03365 18.0981 -33.2559 14.4686 20.5663 77.481 -27.4995 -11.6383 -17.2172 -10.1173 
1.05661 81.6248 -0.528114 -3.56716 -12.4554 -47.079 -0.567876 13.8885 9.65629 -61.476 -30.0442 -11.8628 0.00152675 5.08257e-06 -109.457 -7.64547 -10.8343 -13.6514 -2.78536 15.3655 35.7558 59.4813 33.3252 48.5751 0.000507342 -2.37843e-05 108.164 6.68429 -4.44313 19.412 -34.0585 -12.9651 -21.5974 -26.2505 67.619 13.9978 28.2415 -30.5364 10.7629 17.2616 -35.242 14.2679 33.4546 82.1422 -40.0948 -11.9536 -8.80066 -9.44235 
1.70135 82.3406 1.52884 -4.28606 -14.2578 -50.2783 -0.886236 14.3002 11.0649 -54.1417 -26.1187 2.31111 0.00152668 4.88663e-06 -108.678 -8.5142 -14.6962 -16.8816 -3.86188 16.55 37.6637 59.9296 35.057 46.9995 0.000507137 -2.31487e-05 107.663 7.03953 -5.12536 19.204 -37.1106 -11.3298 -21.4269 -24.1854 64.5325 11.7877 28.6699 -26.7744 14.0146 16.5099 -36.6205 14.6464 59.2449 85.2151 -65.0027 -12.0802 0.713684 -9.89359 
2.57193 83.4822 4.05898 -5.2124 -15.6922 -54.9034 -1.06383 14.5325 12.2251 -46.3658 -20.3292 16.5013 0.00152632 3.65714e-06 -103.867 -13.0203 -15.8457 -21.5645 -6.59026 17.3753 41.3746 59.4557 37.1728 46.5669 0.000506446 -2.08547e-05 105.864 7.48719 -7.30885 18.7384 -40.6201 -10.0224 -21.8621 -20.8338 59.7479 13.5709 26.4297 -24.0512 12.8719 16.6541 -36.3887 15.2196 83.8099 86.7567 -88.8197 -8.49006 8.62221 -14.5757 
3.74813 85.0113 6.92111 -6.38484 -15.9288 -61.1302 -1.34598 15.0997 12.2584 -35.9765 -12.9516 31.6863 0.00152608 2.49083e-06 -99.395 -15.9878 -19.2998 -24.7884 -9.8422 16.7595 47.7553 56.6907 39.4582 48.9171 0.000505517 -1.72552e-05 103.072 7.12521 -11.4927 18.6833 -43.3982 -10.5741 -22.3461 -17.7959 53.9186 17.7742 24.8137 -17.9668 11.1539 17.6865 -34.5152 16.2384 93.1172 87.2959 -98.3796 -5.18037 10.5304 -19.1062 
